HIERARCHY
ROOT Hips
{
	OFFSET 0.000000 0.000000 0.000000
	CHANNELS 6 Xposition Yposition Zposition Zrotation Yrotation Xrotation 
	JOINT LowerBack
	{
		OFFSET 0.000000 0.000000 0.000000
		CHANNELS 3 Zrotation Yrotation Xrotation
		JOINT Spine
		{
			OFFSET 0.028270 2.035590 -0.193380
			CHANNELS 3 Zrotation Yrotation Xrotation
			JOINT Spine1
			{
				OFFSET 0.056720 2.048850 -0.042750
				CHANNELS 3 Zrotation Yrotation Xrotation
				JOINT Neck
				{
					OFFSET 0.000000 0.000000 0.000000
					CHANNELS 3 Zrotation Yrotation Xrotation
					JOINT Neck1
					{
						OFFSET -0.054170 1.746240 0.172020
						CHANNELS 3 Zrotation Yrotation Xrotation
						JOINT Head
						{
							OFFSET 0.104070 1.761360 -0.123970
							CHANNELS 3 Zrotation Yrotation Xrotation
							End Site
							{
								OFFSET 0.000000 0.000000 0.000000
							}
						}
					}
				}
				JOINT LeftShoulder
				{
					OFFSET 0.000000 0.000000 0.000000
					CHANNELS 3 Zrotation Yrotation Xrotation
					JOINT LeftArm
					{
						OFFSET 3.362410 1.200890 -0.311210
						CHANNELS 3 Zrotation Yrotation Xrotation
						JOINT LeftForeArm
						{
							OFFSET 4.983000 -0.000000 -0.000000
							CHANNELS 3 Zrotation Yrotation Xrotation
							JOINT LeftHand
							{
								OFFSET 3.483560 -0.000000 -0.000000
								CHANNELS 3 Zrotation Yrotation Xrotation
								JOINT LeftFingerBase
								{
									OFFSET 0.000000 0.000000 0.000000
									CHANNELS 3 Zrotation Yrotation Xrotation
									JOINT LeftHandIndex1
									{
										OFFSET 0.715260 -0.000000 -0.000000
										CHANNELS 3 Zrotation Yrotation Xrotation
										End Site
										{
											OFFSET 0.000000 0.000000 0.000000
										}
									}
								}
								JOINT LThumb
								{
									OFFSET 0.000000 0.000000 0.000000
									CHANNELS 3 Zrotation Yrotation Xrotation
									End Site
									{
										OFFSET 0.000000 0.000000 0.000000
									}
								}
							}
						}
					}
				}
				JOINT RightShoulder
				{
					OFFSET 0.000000 0.000000 0.000000
					CHANNELS 3 Zrotation Yrotation Xrotation
					JOINT RightArm
					{
						OFFSET -3.136600 1.374050 -0.404650
						CHANNELS 3 Zrotation Yrotation Xrotation
						JOINT RightForeArm
						{
							OFFSET -5.241900 -0.000000 -0.000000
							CHANNELS 3 Zrotation Yrotation Xrotation
							JOINT RightHand
							{
								OFFSET -3.444170 -0.000000 -0.000000
								CHANNELS 3 Zrotation Yrotation Xrotation
								JOINT RightFingerBase
								{
									OFFSET 0.000000 0.000000 0.000000
									CHANNELS 3 Zrotation Yrotation Xrotation
									JOINT RightHandIndex1
									{
										OFFSET -0.622530 -0.000000 -0.000000
										CHANNELS 3 Zrotation Yrotation Xrotation
										End Site
										{
											OFFSET 0.000000 0.000000 0.000000
										}
									}
								}
								JOINT RThumb
								{
									OFFSET 0.000000 0.000000 0.000000
									CHANNELS 3 Zrotation Yrotation Xrotation
									End Site
									{
										OFFSET 0.000000 0.000000 0.000000
									}
								}
							}
						}
					}
				}
			}
		}
	}
}
}
MOTION
Frames: 12
Frame Time: 0.008333
-1.339007 17.470187 1.880984 -72.606248 -70.048638 91.840760 -1.157600 -1.137664 5.720589 -2.339725 -1.147099 -2.252755 -11.281542 -1.384948 -1.982361 7.883651 5.206077 2.079790 -6.115698 -0.464209 1.999551 0.000000 0.000000 0.000000 -6.069662 -13.697503 4.560284 -48.185483 -20.953395 9.601413 -3.258192 -28.830807 -0.006017 4.145760 -4.175929 -0.160464 -0.083829 0.191209 0.000000 0.000000 0.000000 0.000000 0.000000 0.000000 0.000000 24.968182 3.797634 2.059376 64.937138 18.046213 3.163496 2.302812 20.264458 0.007724 1.459480 10.318602 0.132956 0.015814 -0.167262 0.000000 0.000000 0.000000 0.000000 0.000000 0.000000 0.000000 
-1.336888 17.469174 1.869869 -72.935237 -70.127812 92.334127 -1.331425 -1.090748 5.753681 -2.386859 -1.097147 -2.242841 -11.283608 -1.335576 -1.954192 7.769115 5.334749 2.157125 -6.137733 -0.465221 2.009351 0.000000 0.000000 0.000000 -6.190610 -13.636284 4.571083 -48.072140 -20.844879 9.369939 -3.290924 -28.226597 -0.005806 4.090159 -4.085757 -0.154979 -0.082742 0.187470 0.000000 0.000000 0.000000 0.000000 0.000000 0.000000 0.000000 24.955310 3.874732 2.019290 65.055394 18.322355 3.084824 2.283448 20.141806 0.007571 1.471320 10.351207 0.134551 0.014742 -0.167560 0.000000 0.000000 0.000000 0.000000 0.000000 0.000000 0.000000 
-1.335188 17.468588 1.858779 -73.052710 -70.217808 92.614290 -1.510248 -1.064145 5.790810 -2.433095 -1.067351 -2.229895 -11.280374 -1.305779 -1.923963 7.653008 5.443073 2.231144 -6.157044 -0.466054 2.018785 0.000000 0.000000 0.000000 -6.299056 -13.592003 4.581278 -47.989642 -20.713643 9.087072 -3.323797 -27.552085 -0.005654 4.045232 -3.998468 -0.149896 -0.081379 0.183748 0.000000 0.000000 0.000000 0.000000 0.000000 0.000000 0.000000 24.925184 3.920669 1.974043 65.195899 18.597328 3.044028 2.262403 20.050879 0.007407 1.489055 10.375953 0.136546 0.013563 -0.167616 0.000000 0.000000 0.000000 0.000000 0.000000 0.000000 0.000000 
-1.334233 17.468392 1.847571 -72.925987 -70.318705 92.657542 -1.696635 -1.058556 5.825549 -2.478849 -1.058439 -2.215085 -11.271285 -1.296258 -1.892173 7.541156 5.526585 2.301318 -6.172749 -0.466689 2.028010 0.000000 0.000000 0.000000 -6.386221 -13.571472 4.589446 -47.948633 -20.556393 8.748613 -3.355157 -26.805906 -0.005586 4.019129 -3.918898 -0.145916 -0.079688 0.180107 0.000000 0.000000 0.000000 0.000000 0.000000 0.000000 0.000000 24.880458 3.931403 1.923969 65.357269 18.859913 3.047301 2.239143 20.007211 0.007224 1.511079 10.392024 0.138940 0.012272 -0.167447 0.000000 0.000000 0.000000 0.000000 0.000000 0.000000 0.000000 
-1.333958 17.468263 1.837094 -72.563366 -70.408905 92.470517 -1.863202 -1.070420 5.857207 -2.517628 -1.067321 -2.198049 -11.256488 -1.303639 -1.855614 7.429588 5.580387 2.363167 -6.183642 -0.467062 2.036267 0.000000 0.000000 0.000000 -6.471537 -13.554118 4.595347 -47.946072 -20.408920 8.372023 -3.385590 -25.975981 -0.005598 4.014538 -3.849042 -0.143137 -0.077781 0.176655 0.000000 0.000000 0.000000 0.000000 0.000000 0.000000 0.000000 24.810448 3.906483 1.868686 65.532571 19.105150 3.092557 2.215055 20.024783 0.007040 1.538344 10.397385 0.141635 0.010920 -0.167089 0.000000 0.000000 0.000000 0.000000 0.000000 0.000000 0.000000 
-1.335006 17.468395 1.826038 -71.936905 -70.508774 92.040275 -2.045281 -1.101077 5.872572 -2.557745 -1.094795 -2.182456 -11.235851 -1.329072 -1.818911 7.333923 5.604984 2.421293 -6.190026 -0.467253 2.044827 0.000000 0.000000 0.000000 -6.520387 -13.568771 4.596573 -47.997929 -20.227244 7.942158 -3.411372 -25.081321 -0.005734 4.043246 -3.791062 -0.141862 -0.075471 0.173328 0.000000 0.000000 0.000000 0.000000 0.000000 0.000000 0.000000 24.734898 3.844276 1.809409 65.723869 19.314680 3.190089 2.187845 20.113743 0.006826 1.563802 10.399278 0.144130 0.009458 -0.166599 0.000000 0.000000 0.000000 0.000000 0.000000 0.000000 0.000000 
-1.337184 17.468442 1.815429 -71.099398 -70.593269 91.409145 -2.212240 -1.143255 5.877340 -2.592180 -1.133905 -2.166722 -11.210250 -1.365286 -1.777889 7.246536 5.591551 2.469287 -6.191566 -0.467236 2.052204 0.000000 0.000000 0.000000 -6.560174 -13.590595 4.593120 -48.090012 -20.049340 7.480357 -3.433470 -24.122502 -0.005960 4.097825 -3.741501 -0.141788 -0.072887 0.170181 0.000000 0.000000 0.000000 0.000000 0.000000 0.000000 0.000000 24.643252 3.742225 1.746573 65.921754 19.498020 3.343269 2.159888 20.272194 0.006599 1.583387 10.402111 0.146124 0.008023 -0.166069 0.000000 0.000000 0.000000 0.000000 0.000000 0.000000 0.000000 
-1.341118 17.468564 1.803978 -70.039462 -70.682596 90.576787 -2.400034 -1.197913 5.859171 -2.629544 -1.185011 -2.154500 -11.180263 -1.413031 -1.737049 7.182067 5.553177 2.513500 -6.188857 -0.467083 2.059943 0.000000 0.000000 0.000000 -6.561929 -13.632505 4.584077 -48.231242 -19.848884 6.986309 -3.450301 -23.110883 -0.006303 4.187932 -3.703214 -0.143217 -0.069969 0.167162 0.000000 0.000000 0.000000 0.000000 0.000000 0.000000 0.000000 24.555055 3.611939 1.680191 66.128512 19.626726 3.538539 2.128294 20.514364 0.006332 1.597649 10.406962 0.147620 0.006460 -0.165522 0.000000 0.000000 0.000000 0.000000 0.000000 0.000000 0.000000 
-1.346410 17.468469 1.792660 -68.832793 -70.754719 89.601876 -2.581332 -1.256689 5.830458 -2.663744 -1.239903 -2.143409 -11.146792 -1.463983 -1.694317 7.130822 5.483438 2.549126 -6.182145 -0.466799 2.066749 0.000000 0.000000 0.000000 -6.551435 -13.679834 4.570012 -48.404783 -19.645640 6.475524 -3.462323 -22.063020 -0.006720 4.300887 -3.668798 -0.145548 -0.066801 0.164274 0.000000 0.000000 0.000000 0.000000 0.000000 0.000000 0.000000 24.460484 3.453284 1.612196 66.334662 19.716823 3.774824 2.095700 20.825785 0.006048 1.601640 10.421898 0.148315 0.004925 -0.165090 0.000000 0.000000 0.000000 0.000000 0.000000 0.000000 0.000000 
-1.353168 17.468196 1.781195 -67.516150 -70.814655 88.516380 -2.765627 -1.316414 5.792532 -2.697386 -1.295112 -2.133494 -11.110986 -1.514745 -1.649978 7.094846 5.380541 2.575279 -6.172860 -0.466464 2.072131 0.000000 0.000000 0.000000 -6.525914 -13.732460 4.550839 -48.602817 -19.430913 5.955390 -3.469529 -21.003234 -0.007188 4.427963 -3.631108 -0.148180 -0.063412 0.161458 0.000000 0.000000 0.000000 0.000000 0.000000 0.000000 0.000000 24.368677 3.265828 1.543714 66.536843 19.775292 4.057183 2.062339 21.192361 0.005734 1.587734 10.454657 0.147611 0.003492 -0.164835 0.000000 0.000000 0.000000 0.000000 0.000000 0.000000 0.000000 
-1.361857 17.467850 1.768926 -66.093819 -70.874059 87.328454 -2.972706 -1.377729 5.740662 -2.735394 -1.350926 -2.126530 -11.073869 -1.565890 -1.606629 7.080827 5.273475 2.597823 -6.161121 -0.466063 2.077287 0.000000 0.000000 0.000000 -6.477414 -13.771133 4.528243 -48.821103 -19.221461 5.451624 -3.474378 -19.924934 -0.007699 4.572369 -3.594787 -0.151312 -0.059990 0.158773 0.000000 0.000000 0.000000 0.000000 0.000000 0.000000 0.000000 24.287732 3.079009 1.472899 66.737888 19.765975 4.336158 2.025470 21.632883 0.005384 1.570059 10.494483 0.146607 0.001885 -0.164713 0.000000 0.000000 0.000000 0.000000 0.000000 0.000000 0.000000 
-1.371910 17.467334 1.756584 -64.639345 -70.921533 86.092937 -3.183178 -1.433785 5.689773 -2.773706 -1.400653 -2.119584 -11.036298 -1.610671 -1.562972 7.077796 5.144825 2.610974 -6.148604 -0.465681 2.080496 0.000000 0.000000 0.000000 -6.423669 -13.801732 4.502537 -49.044402 -19.003725 4.965711 -3.476549 -18.871807 -0.008195 4.711903 -3.545514 -0.153643 -0.056543 0.156139 0.000000 0.000000 0.000000 0.000000 0.000000 0.000000 0.000000 24.213506 2.879091 1.403512 66.929560 19.728902 4.635315 1.988683 22.106730 0.005009 1.534610 10.554958 0.144304 0.000405 -0.164842 0.000000 0.000000 0.000000 0.000000 0.000000 0.000000 0.000000 
